# xmcd
#
# Track frame offsets: 
#        150
#        13439
#        27289
#        41849
#        56728
#        70180
#        84257
#        98204
#        112351
#        125695
#        138053
#        150788
#        164825
#        180094
#        194156
#        208545
#        223075
#        236339
#        248399
#        262524
#        275729
#        290501
#        304088
#
# Disc length: 4234 seconds
#
# Revision: 4
# Processed by: cddbd v1.5.2PL0 Copyright (c) Steve Scherf et al.
# Submitted via: ExactAudioCopy v1.3
#
DISCID=4b108817
DTITLE=Big Bill Broonzy - Blues pioneers, Disc 2
DYEAR=2005
DGENRE=Blues
TTITLE0=I ain't no stranger
TTITLE1=I'm just a bum
TTITLE2=Bad luck blues
TTITLE3=I can't make you satisfied
TTITLE4=Tell me what kind of man Jesus is
TTITLE5=Mountain blues
TTITLE6=Match box blues
TTITLE7=Keep your mind on it
TTITLE8=Keep your hands off her
TTITLE9=Pneumonia blues
TTITLE10=Good liquor gonna carry me down
TTITLE11=Low down woman blues
TTITLE12=Down the line blues
TTITLE13=The Sun gonna shine in my door someday
TTITLE14=Bull cow blues No3
TTITLE15=Bricks in my pillow
TTITLE16=Tell me what you been doing
TTITLE17=Ash hauler
TTITLE18=Married life's a pain
TTITLE19=These ants keep bitting me
TTITLE20=You know I need lovin'
TTITLE21=Black mare blues
TTITLE22=Big Bill blues
EXTD=
EXTT0=
EXTT1=
EXTT2=
EXTT3=
EXTT4=
EXTT5=
EXTT6=
EXTT7=
EXTT8=
EXTT9=
EXTT10=
EXTT11=
EXTT12=
EXTT13=
EXTT14=
EXTT15=
EXTT16=
EXTT17=
EXTT18=
EXTT19=
EXTT20=
EXTT21=
EXTT22=
PLAYORDER=
